# xmcd
#
# Track frame offsets:
#	150
#	14327
#	25508
#	34839
#	48641
#	53238
#
# Disc length: 897 seconds
#
# Revision: 1
# Processed by: cddbd v1.5.2PL0 Copyright (c) Steve Scherf et al.
# Submitted via: audiograbber 1.83.01
#
DISCID=44037f06
DTITLE=Various Artist - Hesen Robotti Disco Vol 2
DYEAR=2006
DGENRE=Pop
TTITLE0=T. Bird - Hämä-Hämä-Häkki
TTITLE1=Bounce Brothers - Piippolan Vaarilla
TTITLE2=M. Örkö Rokkikukot - Mörkö Se Lähti Piiriin
TTITLE3=Tese Ja Make - Pieni Ankanpoikanen
TTITLE4=Tonto - Hesburger
TTITLE5=T. Bird - Hämä-Hämä-Häkki (Karaoke)
EXTD=TR.
EXTT0=
EXTT1=
EXTT2=
EXTT3=
EXTT4=
EXTT5=
PLAYORDER=
